<svg width="35" height="35" viewBox="0 0 35 35" fill="none" xmlns="http://www.w3.org/2000/svg">
<g id="Icon/Instagram">
<path id="path1165" d="M17.4977 0C12.7476 0 12.1504 0.0186818 10.284 0.107419C8.42221 0.191487 7.14838 0.485722 6.03786 0.920069C4.88535 1.36843 3.91015 1.96624 2.93961 2.93768C1.9644 3.90913 1.36715 4.88524 0.91921 6.03883C0.485268 7.15039 0.191307 8.42541 0.107318 10.2842C0.0233297 12.1524 0 12.7502 0 17.5C0 22.2545 0.0233297 22.8476 0.107318 24.7158C0.191307 26.5793 0.489934 27.8496 0.91921 28.9612C1.36715 30.1101 1.9644 31.0909 2.93961 32.0623C3.91015 33.0338 4.89001 33.6362 6.03786 34.0799C7.15305 34.5143 8.42221 34.8085 10.284 34.8926C12.1504 34.9766 12.7476 35 17.4977 35C22.2524 35 22.845 34.9813 24.7114 34.8926C26.5731 34.8085 27.847 34.5143 28.9621 34.0799C30.1146 33.6316 31.0852 33.0338 32.0604 32.0623C33.0356 31.0909 33.6329 30.1148 34.0808 28.9612C34.5101 27.8496 34.804 26.5746 34.8927 24.7158C34.9767 22.8476 35 22.2545 35 17.5C35 12.7455 34.9767 12.1524 34.8927 10.2842C34.804 8.42074 34.5101 7.15039 34.0808 6.03883C33.6329 4.88991 33.0356 3.90913 32.0604 2.93768C31.0852 1.96624 30.1146 1.36843 28.9621 0.920069C27.847 0.485722 26.5731 0.191487 24.7114 0.107419C22.845 0.0233522 22.2524 0 17.4977 0ZM15.9252 3.15719C16.3918 3.15719 16.9097 3.15719 17.493 3.15719C22.1637 3.15719 22.719 3.17587 24.5621 3.25994C26.2698 3.33934 27.1937 3.62423 27.8096 3.86242C28.6262 4.18001 29.2094 4.55831 29.8207 5.17014C30.4319 5.78196 30.8146 6.36576 31.1318 7.18308C31.3698 7.79957 31.6591 8.72431 31.7338 10.4337C31.8178 12.2785 31.8364 12.8343 31.8364 17.5047C31.8364 22.1751 31.8178 22.7309 31.7338 24.5757C31.6544 26.2804 31.3698 27.2098 31.1318 27.8263C30.8146 28.6436 30.4366 29.2227 29.8207 29.8345C29.2094 30.4464 28.6262 30.8247 27.8096 31.1422C27.1937 31.3851 26.2652 31.6653 24.5621 31.7447C22.719 31.8288 22.1637 31.8475 17.493 31.8475C12.8223 31.8475 12.267 31.8288 10.4239 31.7447C8.71617 31.6653 7.79229 31.3804 7.17638 31.1422C6.35982 30.8247 5.77656 30.4464 5.16531 29.8345C4.55406 29.2227 4.17144 28.6389 3.85415 27.8216C3.61618 27.2051 3.32689 26.2804 3.25223 24.571C3.16824 22.7262 3.14958 22.1704 3.14958 17.5C3.14958 12.8249 3.16824 12.2738 3.25223 10.429C3.33155 8.72431 3.61618 7.7949 3.85415 7.17841C4.17144 6.36109 4.54939 5.77729 5.16531 5.16547C5.77656 4.55364 6.35982 4.17534 7.17638 3.85775C7.79229 3.61489 8.72084 3.33467 10.4239 3.25527C12.0384 3.17587 12.6683 3.15252 15.9252 3.15719ZM26.8391 6.06218C25.6819 6.06218 24.7394 7.00093 24.7394 8.16386C24.7394 9.32212 25.6819 10.2655 26.8391 10.2655C27.9963 10.2655 28.9388 9.32679 28.9388 8.16386C28.9388 7.00093 27.9963 6.06218 26.8391 6.06218ZM17.4977 8.51414C12.533 8.51414 8.51087 12.54 8.51087 17.5C8.51087 22.4646 12.533 26.4859 17.4977 26.4859C22.4623 26.4859 26.4798 22.4646 26.4798 17.5C26.4798 12.54 22.4577 8.51414 17.4977 8.51414ZM17.4977 11.6713C20.7172 11.6713 23.3302 14.2821 23.3302 17.5047C23.3302 20.7272 20.7172 23.338 17.4977 23.338C14.2781 23.338 11.6651 20.7272 11.6651 17.5047C11.6651 14.2821 14.2734 11.6713 17.4977 11.6713Z" fill="white"/>
</g>
</svg>
