<svg width="38" height="38" viewBox="0 0 35 41" fill="none" xmlns="http://www.w3.org/2000/svg">
<path d="M26.9769 19.0444C26.8055 18.9616 26.632 18.8832 26.4584 18.8071C26.1535 13.1403 23.0738 9.89727 17.9068 9.8637C17.8846 9.8637 17.8601 9.8637 17.8356 9.8637C14.7447 9.8637 12.1724 11.1909 10.5902 13.6058L13.4319 15.5664C14.6135 13.7625 16.4693 13.3775 17.8356 13.3775C17.8512 13.3775 17.8668 13.3775 17.8823 13.3775C19.5846 13.3887 20.8686 13.8856 21.6986 14.8569C22.3039 15.5641 22.7089 16.5399 22.9092 17.7731C21.4004 17.5157 19.7693 17.4352 18.0247 17.5359C13.1114 17.8201 9.95158 20.7028 10.163 24.709C10.2698 26.7412 11.2778 28.4891 12.9957 29.6306C14.4488 30.5952 16.3224 31.0674 18.2673 30.96C20.8375 30.819 22.8535 29.832 24.2599 28.0281C25.328 26.6584 26.0045 24.8836 26.3026 22.6477C27.5265 23.3907 28.4344 24.3688 28.9373 25.546C29.7896 27.5446 29.8385 30.8302 27.1749 33.5092C24.8407 35.8547 22.0324 36.8708 17.7911 36.9021C13.0847 36.8663 9.52656 35.3489 7.21231 32.3901C5.04715 29.6216 3.92786 25.6199 3.88781 20.4991C3.93009 15.3784 5.04938 11.3766 7.21676 8.60589C9.53101 5.64713 13.0892 4.1297 17.7955 4.09389C22.5353 4.1297 26.1558 5.65384 28.559 8.62603C29.7362 10.083 30.6241 11.916 31.2115 14.0534L34.5427 13.1604C33.8329 10.5284 32.7158 8.26346 31.1959 6.38122C28.1118 2.57422 23.6079 0.620364 17.8045 0.580078H17.7822C11.9899 0.620364 7.5372 2.58093 4.54425 6.40584C1.88064 9.80998 0.507668 14.548 0.460938 20.4857V20.4991V20.5126C0.507668 26.4502 1.88064 31.1883 4.54425 34.5924C7.5372 38.4173 11.9899 40.3779 17.7822 40.4182H17.8045C22.9537 40.3824 26.583 39.0261 29.5737 36.0226C33.4857 32.0925 33.3678 27.1642 32.0794 24.1405C31.1537 21.9696 29.389 20.2082 26.9769 19.0444ZM18.0871 27.4506C15.933 27.5737 13.6967 26.6002 13.5854 24.5187C13.5031 22.9745 14.678 21.2511 18.2183 21.0475C18.6233 21.0228 19.0217 21.0116 19.4133 21.0116C20.6995 21.0116 21.9033 21.137 22.9959 21.3787C22.5887 26.5039 20.1966 27.3343 18.0871 27.4506Z" fill="url(#paint0_linear_2829_6751)"/>
<defs>
<linearGradient id="paint0_linear_2829_6751" x1="9.75358" y1="-3.40129" x2="25.1181" y2="41.0064" gradientUnits="userSpaceOnUse">
<stop stop-color="white"/>
<stop offset="0.25" stop-color="white"/>
<stop offset="0.5" stop-color="white"/>
<stop offset="0.75" stop-color="white"/>
<stop offset="1" stop-color="white"/>
</linearGradient>
</defs>
</svg>
