<svg width="161" height="54" viewBox="0 0 161 54" fill="none" xmlns="http://www.w3.org/2000/svg">
<path d="M5.37402 53.4273H13.7159V22.3857H5.37402V53.4273Z" fill="#FF6C00"/>
<path d="M53.6165 53.4273H61.9584V31.0911C61.9584 29.8693 61.787 28.7048 61.4441 27.5975C61.1394 26.4902 60.6442 25.5166 59.9586 24.6766C59.3111 23.7984 58.4921 23.1112 57.5017 22.6148C56.5114 22.0803 55.3496 21.813 54.0164 21.813C51.9596 21.813 50.1312 22.1375 48.5314 22.7866C46.9316 23.3975 45.4079 24.3902 43.9605 25.7648C43.1225 24.4284 42.0369 23.4357 40.7037 22.7866C39.3706 22.1375 37.9231 21.813 36.3614 21.813C34.7235 21.813 33.257 22.0421 31.9619 22.5003C30.7049 22.9584 29.467 23.703 28.2481 24.7339V22.3857H20.4775V53.4273H28.8194V31.6638C29.086 31.4347 29.4289 31.1484 29.8479 30.8047C30.2669 30.4611 30.7049 30.1557 31.162 29.8884C31.6572 29.5829 32.1524 29.3348 32.6475 29.1438C33.1427 28.9148 33.5998 28.8002 34.0188 28.8002C35.0853 28.8002 35.8472 29.0866 36.3043 29.6593C36.7994 30.232 37.047 31.0338 37.047 32.0647V53.4273H45.3889V31.6638C45.6555 31.4347 45.9983 31.1484 46.4173 30.8047C46.8363 30.4611 47.2934 30.1557 47.7886 29.8884C48.2838 29.5829 48.7599 29.3348 49.217 29.1438C49.7122 28.9148 50.1502 28.8002 50.5311 28.8002C51.5977 28.8002 52.3785 29.0866 52.8737 29.6593C53.3689 30.232 53.6165 31.0338 53.6165 32.0647V53.4273Z" fill="#FF6C00"/>
<path d="M101.267 53.4273H109.609V31.0911C109.609 29.8693 109.437 28.7048 109.095 27.5975C108.79 26.4902 108.295 25.5166 107.609 24.6766C106.961 23.7984 106.143 23.1112 105.152 22.6148C104.162 22.0803 103 21.813 101.667 21.813C99.6099 21.813 97.7816 22.1375 96.1818 22.7866C94.582 23.3975 93.0583 24.3902 91.6109 25.7648C90.7729 24.4284 89.6873 23.4357 88.3541 22.7866C87.0209 22.1375 85.5735 21.813 84.0118 21.813C82.3739 21.813 80.9074 22.0421 79.6123 22.5003C78.3553 22.9584 77.1174 23.703 75.8984 24.7339V22.3857H68.1279V53.4273H76.4698V31.6638C76.7364 31.4347 77.0793 31.1484 77.4983 30.8047C77.9173 30.4611 78.3553 30.1557 78.8124 29.8884C79.3076 29.5829 79.8027 29.3348 80.2979 29.1438C80.7931 28.9148 81.2502 28.8002 81.6692 28.8002C82.7357 28.8002 83.4976 29.0866 83.9546 29.6593C84.4498 30.232 84.6974 31.0338 84.6974 32.0647V53.4273H93.0393V31.6638C93.3059 31.4347 93.6487 31.1484 94.0677 30.8047C94.4867 30.4611 94.9438 30.1557 95.439 29.8884C95.9342 29.5829 96.4103 29.3348 96.8674 29.1438C97.3626 28.9148 97.8006 28.8002 98.1815 28.8002C99.2481 28.8002 100.029 29.0866 100.524 29.6593C101.019 30.232 101.267 31.0338 101.267 32.0647V53.4273Z" fill="#FF6C00"/>
<path d="M134.234 52.511C135.3 52.0146 136.29 51.3464 137.205 50.5064C138.157 49.6282 139.09 48.5019 140.004 47.1274L133.834 43.2328C132.996 44.3401 132.081 45.2565 131.091 45.9819C130.139 46.6692 128.939 47.0128 127.492 47.0128C126.349 47.0128 125.435 46.8028 124.749 46.3828C124.063 45.9628 123.511 45.4092 123.092 44.7219C122.711 44.0346 122.425 43.2519 122.235 42.3737C122.083 41.4956 121.949 40.5983 121.835 39.6819H139.776V35.6729C139.776 33.6493 139.414 31.8166 138.69 30.1747C138.005 28.5329 137.09 27.0629 135.948 25.7648C133.586 23.1303 130.596 21.813 126.977 21.813C124.616 21.813 122.578 22.2521 120.864 23.1303C119.188 24.0084 117.797 25.1921 116.693 26.6811C115.588 28.132 114.769 29.8311 114.236 31.7784C113.741 33.7256 113.493 35.7683 113.493 37.9065C113.493 40.0065 113.741 42.0301 114.236 43.9774C114.769 45.8865 115.569 47.5855 116.636 49.0746C117.702 50.5637 119.073 51.7664 120.749 52.6828C122.425 53.5609 124.425 54 126.749 54C129.72 54 132.215 53.5037 134.234 52.511ZM130.52 29.8311C131.358 30.7857 131.834 32.0456 131.948 33.6111H121.892C122.006 32.8856 122.159 32.1984 122.349 31.5493C122.578 30.9002 122.883 30.3466 123.263 29.8884C123.644 29.392 124.12 29.0102 124.692 28.7429C125.301 28.4757 126.044 28.342 126.92 28.342C128.444 28.342 129.644 28.8384 130.52 29.8311Z" fill="#FF6C00"/>
<path d="M158.402 30.5184L160.116 30.6329V21.813C158.288 21.813 156.669 22.1184 155.26 22.7293C153.888 23.3402 152.689 24.4093 151.66 25.9366V22.3857H143.89V53.4273H152.232V34.6993C152.612 33.8593 153.393 32.962 154.574 32.0075C155.869 30.9766 157.145 30.4802 158.402 30.5184Z" fill="#FF6C00"/>
<path fill-rule="evenodd" clip-rule="evenodd" d="M1.89273 15.2881C5.04259 19.5215 11.0285 20.3951 15.2518 17.2378C19.4752 14.0804 20.3467 8.08024 17.1968 3.84683C14.047 -0.386583 8.06109 -1.26017 3.83774 1.89719C-0.385606 5.05455 -1.25712 11.0547 1.89273 15.2881ZM3.93328 13.7626C6.24306 16.867 10.6329 17.5077 13.7299 15.1924C16.827 12.877 17.4661 8.47674 15.1563 5.37233C12.8465 2.26793 8.45664 1.62727 5.35962 3.9426C2.26259 6.25792 1.62347 10.6582 3.93328 13.7626Z" fill="#FF6C00"/>
<path fill-rule="evenodd" clip-rule="evenodd" d="M7.24023 9.5675C7.24023 10.8426 8.27265 11.8774 9.54469 11.8774C10.8167 11.8774 11.8491 10.8426 11.8491 9.5675C11.8491 8.29243 10.8167 7.25755 9.54469 7.25755C8.27265 7.25755 7.24023 8.29243 7.24023 9.5675Z" fill="#FF6C00"/>
<path d="M14.6801 9.56743C14.5426 9.56867 13.6693 9.56867 13.4611 9.56743C13.4611 7.33895 11.6526 5.5261 9.42941 5.5261C7.20623 5.5261 5.39769 7.33895 5.39769 9.56743C5.1903 9.56867 4.48162 9.56867 4.17871 9.56743C4.1783 6.66518 6.53415 4.30411 9.42952 4.30411C12.3249 4.30411 14.6803 6.66524 14.6803 9.56743H14.6801Z" fill="#FF6C00"/>
</svg>
