<svg width="38" height="38" viewBox="0 0 39 39" fill="none" xmlns="http://www.w3.org/2000/svg">
<g clip-path="url(#clip0_2829_6740)">
<path d="M19.5 39C30.2696 39 39 30.2696 39 19.5C39 8.73045 30.2696 0 19.5 0C8.73045 0 0 8.73045 0 19.5C0 30.2696 8.73045 39 19.5 39Z" fill="white"/>
<path d="M24.2906 15.8441H21.0406V13.7316C21.0406 12.9191 21.6094 12.7566 21.9344 12.7566C22.3406 12.7566 24.2094 12.7566 24.2094 12.7566V9.18164H21.0406C17.4656 9.18164 16.7344 11.8629 16.7344 13.4879V15.8441H14.7031V19.5004H16.7344C16.7344 24.2129 16.7344 29.8191 16.7344 29.8191H21.0406C21.0406 29.8191 21.0406 24.1316 21.0406 19.5004H23.9656L24.2906 15.8441Z" fill="black"/>
</g>
<defs>
<clipPath id="clip0_2829_6740">
<rect width="39" height="39" fill="white"/>
</clipPath>
</defs>
</svg>
