<svg width="39" height="40" viewBox="0 0 39 40" fill="none" xmlns="http://www.w3.org/2000/svg">
<path d="M19.5038 0.786133C14.2812 0.786133 13.6246 0.806626 11.5725 0.90397C9.52558 0.99619 8.12504 1.31896 6.90406 1.79543C5.63691 2.28727 4.56471 2.94306 3.49763 4.00871C2.42543 5.07437 1.76876 6.14515 1.27627 7.41061C0.799162 8.62997 0.475961 10.0286 0.383618 12.0677C0.291275 14.1171 0.265625 14.7729 0.265625 19.9833C0.265625 25.1988 0.291275 25.8495 0.383618 27.8988C0.475961 29.9431 0.804292 31.3366 1.27627 32.556C1.76876 33.8163 2.42543 34.8922 3.49763 35.9579C4.56471 37.0235 5.64204 37.6844 6.90406 38.1711C8.13017 38.6476 9.52558 38.9704 11.5725 39.0626C13.6246 39.1548 14.2812 39.1804 19.5038 39.1804C24.7314 39.1804 25.3829 39.1599 27.435 39.0626C29.4819 38.9704 30.8825 38.6476 32.1086 38.1711C33.3757 37.6793 34.4428 37.0235 35.515 35.9579C36.5872 34.8922 37.2439 33.8214 37.7364 32.556C38.2084 31.3366 38.5316 29.9379 38.629 27.8988C38.7214 25.8495 38.747 25.1988 38.747 19.9833C38.747 14.7677 38.7214 14.1171 38.629 12.0677C38.5316 10.0235 38.2084 8.62997 37.7364 7.41061C37.2439 6.15027 36.5872 5.07437 35.515 4.00871C34.4428 2.94306 33.3757 2.28727 32.1086 1.79543C30.8825 1.31896 29.4819 0.99619 27.435 0.90397C25.3829 0.81175 24.7314 0.786133 19.5038 0.786133ZM17.7749 4.24951C18.2879 4.24951 18.8574 4.24951 19.4986 4.24951C24.6339 4.24951 25.2444 4.27 27.2708 4.36222C29.1485 4.44932 30.1642 4.76185 30.8414 5.02314C31.7392 5.37152 32.3805 5.78651 33.0525 6.45767C33.7246 7.12883 34.1453 7.76924 34.4941 8.66583C34.7557 9.34211 35.0738 10.3565 35.1559 12.2317C35.2482 14.2554 35.2688 14.8651 35.2688 19.9884C35.2688 25.1117 35.2482 25.7214 35.1559 27.7451C35.0687 29.6152 34.7557 30.6347 34.4941 31.311C34.1453 32.2076 33.7297 32.8429 33.0525 33.514C32.3805 34.1852 31.7392 34.6002 30.8414 34.9486C30.1642 35.215 29.1433 35.5224 27.2708 35.6095C25.2444 35.7017 24.6339 35.7222 19.4986 35.7222C14.3633 35.7222 13.7528 35.7017 11.7264 35.6095C9.84878 35.5224 8.83301 35.2099 8.15582 34.9486C7.25804 34.6002 6.61677 34.1852 5.94472 33.514C5.27267 32.8429 4.852 32.2025 4.50314 31.3059C4.24151 30.6296 3.92343 29.6152 3.84135 27.74C3.74901 25.7163 3.72849 25.1066 3.72849 19.9833C3.72849 14.8548 3.74901 14.2503 3.84135 12.2266C3.92856 10.3565 4.24151 9.33699 4.50314 8.66071C4.852 7.76412 5.26754 7.1237 5.94472 6.45255C6.61677 5.78139 7.25804 5.3664 8.15582 5.01801C8.83301 4.7516 9.85391 4.4442 11.7264 4.3571C13.5015 4.27 14.194 4.24439 17.7749 4.24951ZM29.7744 7.43623C28.5021 7.43623 27.4658 8.46602 27.4658 9.74173C27.4658 11.0123 28.5021 12.0472 29.7744 12.0472C31.0466 12.0472 32.0829 11.0174 32.0829 9.74173C32.0829 8.46602 31.0466 7.43623 29.7744 7.43623ZM19.5038 10.126C14.0453 10.126 9.62305 14.5423 9.62305 19.9833C9.62305 25.4294 14.0453 29.8406 19.5038 29.8406C24.9623 29.8406 29.3793 25.4294 29.3793 19.9833C29.3793 14.5423 24.9571 10.126 19.5038 10.126ZM19.5038 13.5894C23.0436 13.5894 25.9165 16.4533 25.9165 19.9884C25.9165 23.5235 23.0436 26.3875 19.5038 26.3875C15.9639 26.3875 13.091 23.5235 13.091 19.9884C13.091 16.4533 15.9588 13.5894 19.5038 13.5894Z" fill="white"/>
</svg>
