<svg width="40" height="40" viewBox="0 0 40 40" fill="none" xmlns="http://www.w3.org/2000/svg">
<path id="Vector" d="M20 0C8.97405 0 0 8.97405 0 20C0 31.026 8.97405 40 20 40C31.026 40 40 31.026 40 20C40 8.97405 31.026 0 20 0ZM20 3.33333C29.2245 3.33333 36.6667 10.7755 36.6667 20C36.6667 28.379 30.5195 35.2688 22.4805 36.4648V24.86H27.2266L27.972 20.0391H22.4805V17.4056C22.4805 15.4039 23.1381 13.6263 25.0098 13.6263H28.0176V9.42057C27.4892 9.34891 26.3711 9.19271 24.2578 9.19271C19.8445 9.19271 17.2591 11.5227 17.2591 16.8327V20.0391H12.7214V24.86H17.2591V36.4225C9.34809 35.1177 3.33333 28.2884 3.33333 20C3.33333 10.7755 10.7755 3.33333 20 3.33333Z" fill="white"/>
</svg>
