<svg width="256" height="86" viewBox="0 0 256 86" fill="none" xmlns="http://www.w3.org/2000/svg">
<g id="Frame 774">
<path id="path886" d="M8.59204 85.0878H21.9293V35.6512H8.59204V85.0878Z" fill="#FF6C00"/>
<path id="path888" d="M85.7238 85.0879H99.0611V49.5154C99.0611 47.5695 98.787 45.7149 98.2389 43.9515C97.7517 42.1881 96.96 40.6375 95.8638 39.2997C94.8285 37.9011 93.5191 36.8066 91.9357 36.0161C90.3523 35.1648 88.4948 34.7391 86.3633 34.7391C83.0746 34.7391 80.1514 35.256 77.5935 36.2897C75.0357 37.2627 72.5997 38.8436 70.2854 41.0327C68.9456 38.9045 67.2099 37.3235 65.0784 36.2897C62.9469 35.256 60.6326 34.7391 58.1357 34.7391C55.5169 34.7391 53.1723 35.104 51.1016 35.8337C49.0919 36.5634 47.1126 37.7491 45.1638 39.3909V35.6513H32.74V85.0879H46.0773V50.4275C46.5036 50.0627 47.0517 49.6066 47.7216 49.0593C48.3915 48.5121 49.0919 48.0256 49.8227 47.5999C50.6144 47.1135 51.4061 46.7182 52.1978 46.4142C52.9895 46.0494 53.7204 45.8669 54.3903 45.8669C56.0955 45.8669 57.3135 46.323 58.0443 47.2351C58.836 48.1472 59.2319 49.4242 59.2319 51.066V85.0879H72.5692V50.4275C72.9955 50.0627 73.5436 49.6066 74.2135 49.0593C74.8834 48.5121 75.6142 48.0256 76.406 47.5999C77.1977 47.1135 77.9589 46.7182 78.6897 46.4142C79.4814 46.0494 80.1818 45.8669 80.7908 45.8669C82.496 45.8669 83.7445 46.323 84.5362 47.2351C85.3279 48.1472 85.7238 49.4242 85.7238 51.066V85.0879Z" fill="#FF6C00"/>
<path id="path890" d="M161.909 85.0879H175.247V49.5154C175.247 47.5695 174.973 45.7149 174.424 43.9515C173.937 42.1881 173.146 40.6375 172.049 39.2997C171.014 37.9011 169.705 36.8066 168.121 36.0161C166.538 35.1648 164.68 34.7391 162.549 34.7391C159.26 34.7391 156.337 35.256 153.779 36.2897C151.221 37.2627 148.785 38.8436 146.471 41.0327C145.131 38.9045 143.395 37.3235 141.264 36.2897C139.132 35.256 136.818 34.7391 134.321 34.7391C131.702 34.7391 129.358 35.104 127.287 35.8337C125.277 36.5634 123.298 37.7491 121.349 39.3909V35.6513H108.926V85.0879H122.263V50.4275C122.689 50.0627 123.237 49.6066 123.907 49.0593C124.577 48.5121 125.277 48.0256 126.008 47.5999C126.8 47.1135 127.592 46.7182 128.383 46.4142C129.175 46.0494 129.906 45.8669 130.576 45.8669C132.281 45.8669 133.499 46.323 134.23 47.2351C135.022 48.1472 135.417 49.4242 135.417 51.066V85.0879H148.755V50.4275C149.181 50.0627 149.729 49.6066 150.399 49.0593C151.069 48.5121 151.8 48.0256 152.591 47.5999C153.383 47.1135 154.144 46.7182 154.875 46.4142C155.667 46.0494 156.367 45.8669 156.976 45.8669C158.682 45.8669 159.93 46.323 160.722 47.2351C161.513 48.1472 161.909 49.4242 161.909 51.066V85.0879Z" fill="#FF6C00"/>
<path id="path892" d="M214.618 83.6285C216.323 82.838 217.906 81.7738 219.368 80.436C220.891 79.0375 222.383 77.2437 223.844 75.0546L213.978 68.8522C212.639 70.6156 211.177 72.075 209.594 73.2303C208.071 74.3249 206.153 74.8722 203.838 74.8722C202.011 74.8722 200.55 74.5377 199.454 73.8688C198.357 73.1999 197.474 72.3182 196.804 71.2237C196.195 70.1292 195.739 68.8826 195.434 67.484C195.19 66.0855 194.977 64.6565 194.795 63.1971H223.479V56.8123C223.479 53.5895 222.9 50.6707 221.743 48.056C220.647 45.4413 219.185 43.1002 217.358 41.0327C213.583 36.837 208.802 34.7391 203.016 34.7391C199.24 34.7391 195.982 35.4384 193.242 36.837C190.562 38.2356 188.339 40.1206 186.573 42.4921C184.807 44.8028 183.497 47.5087 182.645 50.6099C181.853 53.7111 181.457 56.9643 181.457 60.3695C181.457 63.714 181.853 66.9368 182.645 70.038C183.497 73.0783 184.776 75.7843 186.482 78.1558C188.187 80.5273 190.379 82.4427 193.059 83.9021C195.739 85.3007 198.936 86 202.651 86C207.401 86 211.39 85.2095 214.618 83.6285ZM208.68 47.5087C210.02 49.0289 210.781 51.0356 210.964 53.5287H194.886C195.069 52.3733 195.312 51.2788 195.617 50.2451C195.982 49.2113 196.469 48.3296 197.078 47.5999C197.687 46.8094 198.449 46.2014 199.362 45.7757C200.337 45.3501 201.524 45.1372 202.925 45.1372C205.361 45.1372 207.279 45.9277 208.68 47.5087Z" fill="#FF6C00"/>
<path id="path894" d="M253.259 48.6033L256 48.7857V34.7391C253.077 34.7391 250.488 35.2256 248.235 36.1985C246.043 37.1714 244.124 38.8741 242.48 41.3064V35.6513H230.056V85.0879H243.393V55.2617C244.002 53.9239 245.251 52.495 247.139 50.9748C249.21 49.333 251.25 48.5425 253.259 48.6033Z" fill="#FF6C00"/>
<g id="g886">
<path id="path6424" fill-rule="evenodd" clip-rule="evenodd" d="M3.02618 24.3478C8.06228 31.0899 17.6327 32.4812 24.3852 27.4528C31.1376 22.4244 32.531 12.8686 27.4949 6.12654C22.4588 -0.615561 12.8884 -2.00683 6.13592 3.02155C-0.616521 8.04994 -2.00992 17.6057 3.02618 24.3478ZM6.28868 21.9183C9.98164 26.8623 17.0003 27.8827 21.952 24.1953C26.9036 20.508 27.9255 13.5001 24.2324 8.55604C20.5394 3.612 13.5208 2.59169 8.56916 6.27906C3.61752 9.96643 2.59566 16.9743 6.28868 21.9183Z" fill="#FF6C00"/>
<path id="path6424-9" fill-rule="evenodd" clip-rule="evenodd" d="M11.5762 15.2372C11.5762 17.2679 13.2268 18.916 15.2606 18.916C17.2944 18.916 18.9451 17.2679 18.9451 15.2372C18.9451 13.2066 17.2944 11.5584 15.2606 11.5584C13.2268 11.5584 11.5762 13.2066 11.5762 15.2372Z" fill="#FF6C00"/>
<path id="path6901-3" d="M23.4707 15.2372C23.2508 15.2391 21.8545 15.2391 21.5218 15.2372C21.5218 11.6881 18.6302 8.80098 15.0757 8.80098C11.5212 8.80098 8.62962 11.6881 8.62962 15.2372C8.29803 15.2391 7.16496 15.2391 6.68066 15.2372C6.68001 10.6151 10.4466 6.85484 15.0759 6.85484C19.7051 6.85484 23.4711 10.6152 23.4711 15.2372H23.4707Z" fill="#FF6C00"/>
</g>
</g>
</svg>
