<svg width="190" height="45" viewBox="0 0 190 45" fill="none" xmlns="http://www.w3.org/2000/svg">
<path d="M124.747 10.7273V34H121.52L109.69 16.9318H109.474V34H105.963V10.7273H109.213L121.054 27.8182H121.27V10.7273H124.747ZM137.119 34.3523C135.4 34.3523 133.919 33.9848 132.676 33.25C131.441 32.5076 130.487 31.4659 129.812 30.125C129.146 28.7765 128.812 27.197 128.812 25.3864C128.812 23.5985 129.146 22.0227 129.812 20.6591C130.487 19.2955 131.426 18.2311 132.631 17.4659C133.843 16.7008 135.259 16.3182 136.881 16.3182C137.866 16.3182 138.82 16.4811 139.744 16.8068C140.669 17.1326 141.498 17.6439 142.233 18.3409C142.968 19.0379 143.547 19.9432 143.972 21.0568C144.396 22.1629 144.608 23.5076 144.608 25.0909V26.2955H130.733V23.75H141.278C141.278 22.8561 141.097 22.0644 140.733 21.375C140.369 20.678 139.858 20.1288 139.199 19.7273C138.547 19.3258 137.782 19.125 136.903 19.125C135.949 19.125 135.116 19.3598 134.403 19.8295C133.699 20.2917 133.153 20.8977 132.767 21.6477C132.388 22.3902 132.199 23.197 132.199 24.0682V26.0568C132.199 27.2235 132.403 28.2159 132.812 29.0341C133.229 29.8523 133.809 30.4773 134.551 30.9091C135.294 31.3333 136.161 31.5455 137.153 31.5455C137.797 31.5455 138.384 31.4545 138.915 31.2727C139.445 31.0833 139.903 30.803 140.29 30.4318C140.676 30.0606 140.972 29.6023 141.176 29.0568L144.392 29.6364C144.134 30.5833 143.672 31.4129 143.006 32.125C142.347 32.8295 141.517 33.3788 140.517 33.7727C139.525 34.1591 138.392 34.3523 137.119 34.3523ZM152.131 34L146.994 16.5455H150.506L153.926 29.3636H154.097L157.528 16.5455H161.04L164.449 29.3068H164.619L168.017 16.5455H171.528L166.403 34H162.938L159.392 21.3977H159.131L155.585 34H152.131ZM187.832 20.8068L184.753 21.3523C184.624 20.9583 184.42 20.5833 184.139 20.2273C183.866 19.8712 183.495 19.5795 183.026 19.3523C182.556 19.125 181.969 19.0114 181.264 19.0114C180.302 19.0114 179.499 19.2273 178.855 19.6591C178.211 20.0833 177.889 20.6326 177.889 21.3068C177.889 21.8902 178.105 22.3598 178.537 22.7159C178.969 23.072 179.666 23.3636 180.628 23.5909L183.401 24.2273C185.007 24.5985 186.204 25.1705 186.991 25.9432C187.779 26.7159 188.173 27.7197 188.173 28.9545C188.173 30 187.87 30.9318 187.264 31.75C186.666 32.5606 185.829 33.197 184.753 33.6591C183.685 34.1212 182.446 34.3523 181.037 34.3523C179.082 34.3523 177.488 33.9356 176.253 33.1023C175.018 32.2614 174.26 31.0682 173.98 29.5227L177.264 29.0227C177.469 29.8788 177.889 30.5265 178.526 30.9659C179.162 31.3977 179.991 31.6136 181.014 31.6136C182.128 31.6136 183.018 31.3826 183.685 30.9205C184.351 30.4508 184.685 29.8788 184.685 29.2045C184.685 28.6591 184.48 28.2008 184.071 27.8295C183.67 27.4583 183.052 27.178 182.219 26.9886L179.264 26.3409C177.635 25.9697 176.431 25.3788 175.651 24.5682C174.878 23.7576 174.491 22.7311 174.491 21.4886C174.491 20.4583 174.779 19.5568 175.355 18.7841C175.931 18.0114 176.726 17.4091 177.741 16.9773C178.757 16.5379 179.92 16.3182 181.23 16.3182C183.116 16.3182 184.601 16.7273 185.685 17.5455C186.768 18.3561 187.484 19.4432 187.832 20.8068Z" fill="black"/>
<path d="M3.21875 33.6606H8.22024V15.2656H3.21875V33.6606Z" fill="#FF6C00"/>
<path d="M32.1502 33.6602H37.1517V20.4239C37.1517 19.6999 37.0489 19.0098 36.8434 18.3536C36.6607 17.6975 36.3638 17.1205 35.9527 16.6227C35.5644 16.1023 35.0734 15.6951 34.4796 15.4009C33.8859 15.0842 33.1893 14.9258 32.39 14.9258C31.1567 14.9258 30.0605 15.1181 29.1013 15.5027C28.1421 15.8648 27.2286 16.453 26.3608 17.2676C25.8584 16.4757 25.2075 15.8874 24.4082 15.5027C23.6088 15.1181 22.741 14.9258 21.8046 14.9258C20.8226 14.9258 19.9434 15.0615 19.1669 15.3331C18.4132 15.6046 17.671 16.0458 16.9402 16.6567V15.2652H12.2812V33.6602H17.2827V20.7633C17.4426 20.6276 17.6481 20.4579 17.8994 20.2542C18.1506 20.0506 18.4132 19.8696 18.6873 19.7112C18.9842 19.5302 19.2811 19.3831 19.5779 19.27C19.8748 19.1342 20.1489 19.0664 20.4001 19.0664C21.0396 19.0664 21.4963 19.2361 21.7704 19.5754C22.0673 19.9148 22.2157 20.39 22.2157 21.0009V33.6602H27.2172V20.7633C27.3771 20.6276 27.5826 20.4579 27.8338 20.2542C28.085 20.0506 28.3591 19.8696 28.656 19.7112C28.9529 19.5302 29.2384 19.3831 29.5124 19.27C29.8093 19.1342 30.0719 19.0664 30.3003 19.0664C30.9398 19.0664 31.408 19.2361 31.7048 19.5754C32.0017 19.9148 32.1502 20.39 32.1502 21.0009V33.6602Z" fill="#FF6C00"/>
<path d="M60.7127 33.6602H65.7142V20.4239C65.7142 19.6999 65.6114 19.0098 65.4059 18.3536C65.2232 17.6975 64.9263 17.1205 64.5152 16.6227C64.1269 16.1023 63.6359 15.6951 63.0421 15.4009C62.4484 15.0842 61.7518 14.9258 60.9525 14.9258C59.7192 14.9258 58.623 15.1181 57.6638 15.5027C56.7046 15.8648 55.7911 16.453 54.9233 17.2676C54.4209 16.4757 53.77 15.8874 52.9707 15.5027C52.1713 15.1181 51.3035 14.9258 50.3671 14.9258C49.3851 14.9258 48.5058 15.0615 47.7294 15.3331C46.9757 15.6046 46.2335 16.0458 45.5027 16.6567V15.2652H40.8438V33.6602H45.8452V20.7633C46.0051 20.6276 46.2106 20.4579 46.4619 20.2542C46.7131 20.0506 46.9757 19.8696 47.2498 19.7112C47.5467 19.5302 47.8436 19.3831 48.1404 19.27C48.4373 19.1342 48.7114 19.0664 48.9626 19.0664C49.6021 19.0664 50.0588 19.2361 50.3329 19.5754C50.6298 19.9148 50.7782 20.39 50.7782 21.0009V33.6602H55.7797V20.7633C55.9396 20.6276 56.1451 20.4579 56.3963 20.2542C56.6475 20.0506 56.9216 19.8696 57.2185 19.7112C57.5154 19.5302 57.8009 19.3831 58.0749 19.27C58.3718 19.1342 58.6344 19.0664 58.8628 19.0664C59.5023 19.0664 59.9705 19.2361 60.2673 19.5754C60.5642 19.9148 60.7127 20.39 60.7127 21.0009V33.6602Z" fill="#FF6C00"/>
<path d="M80.4821 33.1172C81.1215 32.823 81.7153 32.4271 82.2634 31.9293C82.8344 31.4089 83.3939 30.7414 83.942 29.9269L80.2423 27.619C79.7399 28.2752 79.1918 28.8182 78.598 29.2481C78.027 29.6554 77.3076 29.859 76.4398 29.859C75.7547 29.859 75.2065 29.7346 74.7955 29.4857C74.3844 29.2368 74.0532 28.9087 73.802 28.5014C73.5736 28.0942 73.4023 27.6303 73.2882 27.1099C73.1968 26.5895 73.1169 26.0578 73.0484 25.5148H83.805V23.1391C83.805 21.9399 83.588 20.8538 83.1541 19.8809C82.743 18.908 82.1949 18.0369 81.5098 17.2676C80.0938 15.7064 78.3011 14.9258 76.1315 14.9258C74.7155 14.9258 73.4937 15.186 72.466 15.7064C71.4611 16.2268 70.6276 16.9282 69.9653 17.8106C69.303 18.6704 68.8119 19.6773 68.4922 20.8312C68.1953 21.9851 68.0469 23.1956 68.0469 24.4627C68.0469 25.7071 68.1953 26.9063 68.4922 28.0602C68.8119 29.1915 69.2915 30.1984 69.931 31.0808C70.5705 31.9632 71.3926 32.676 72.3975 33.219C73.4024 33.7394 74.6013 33.9996 75.9945 33.9996C77.7758 33.9996 79.2717 33.7054 80.4821 33.1172ZM78.2554 19.6773C78.7578 20.2429 79.0433 20.9896 79.1118 21.9172H73.0826C73.1511 21.4874 73.2425 21.0801 73.3567 20.6954C73.4937 20.3108 73.6764 19.9827 73.9048 19.7112C74.1332 19.4171 74.4186 19.1908 74.7612 19.0324C75.1266 18.874 75.5719 18.7948 76.0972 18.7948C77.0107 18.7948 77.7301 19.089 78.2554 19.6773Z" fill="#FF6C00"/>
<path d="M94.9747 20.0845L96.0024 20.1524V14.9258C94.9062 14.9258 93.9356 15.1068 93.0906 15.4688C92.2684 15.8308 91.549 16.4644 90.9324 17.3694V15.2652H86.2734V33.6602H91.2749V22.5621C91.5033 22.0643 91.9715 21.5326 92.6795 20.967C93.456 20.356 94.221 20.0619 94.9747 20.0845Z" fill="#FF6C00"/>
<path fill-rule="evenodd" clip-rule="evenodd" d="M1.13482 11.0592C3.02336 13.5679 6.61228 14.0856 9.14445 12.2146C11.6766 10.3435 12.1991 6.78789 10.3106 4.27921C8.42207 1.77052 4.83314 1.25284 2.30097 3.12386C-0.231195 4.99489 -0.753721 8.55054 1.13482 11.0592ZM2.35826 10.1552C3.74312 11.9948 6.37512 12.3745 8.23199 11.0025C10.0889 9.63043 10.4721 7.02286 9.08717 5.18321C7.70228 3.34356 5.0703 2.96391 3.21344 4.33596C1.35657 5.708 0.973372 8.31558 2.35826 10.1552Z" fill="#FF6C00"/>
<path fill-rule="evenodd" clip-rule="evenodd" d="M4.34375 7.66923C4.34375 8.42482 4.96275 9.03809 5.72542 9.03809C6.48808 9.03809 7.10708 8.42482 7.10708 7.66923C7.10708 6.91363 6.48808 6.30037 5.72542 6.30037C4.96275 6.30037 4.34375 6.91363 4.34375 7.66923Z" fill="#FF6C00"/>
<path d="M8.80408 7.66937C8.72163 7.67011 8.19802 7.67011 8.07322 7.66937C8.07322 6.34879 6.98889 5.27451 5.65595 5.27451C4.323 5.27451 3.23867 6.34879 3.23867 7.66937C3.11432 7.67011 2.68942 7.67011 2.50781 7.66937C2.50757 5.94952 3.92005 4.55037 5.65601 4.55037C7.39198 4.55037 8.80421 5.94956 8.80421 7.66937H8.80408Z" fill="#FF6C00"/>
</svg>
