<svg width="33" height="39" viewBox="0 0 33 39" fill="none" xmlns="http://www.w3.org/2000/svg">
<g id="Icon/Threads">
<path id="Vector" d="M25.6743 18.0758C25.5084 17.9948 25.3404 17.9181 25.1723 17.8436C24.8771 12.296 21.8951 9.12118 16.8921 9.08832C16.8706 9.08832 16.8469 9.08832 16.8232 9.08832C13.8304 9.08832 11.3397 10.3876 9.80778 12.7517L12.5592 14.671C13.7033 12.9051 15.5003 12.5282 16.8232 12.5282C16.8383 12.5282 16.8534 12.5282 16.8684 12.5282C18.5167 12.5392 19.7599 13.0256 20.5636 13.9765C21.1496 14.6688 21.5418 15.6241 21.7357 16.8313C20.2749 16.5794 18.6955 16.5005 17.0063 16.5991C12.249 16.8774 9.18941 19.6994 9.3941 23.6213C9.49752 25.6107 10.4736 27.3219 12.1369 28.4393C13.5439 29.3837 15.3581 29.846 17.2412 29.7408C19.7298 29.6028 21.6818 28.6365 23.0435 26.8706C24.0778 25.5297 24.7328 23.7922 25.0215 21.6034C26.2065 22.3308 27.0856 23.2883 27.5725 24.4407C28.3978 26.3973 28.4452 29.6137 25.8661 32.2364C23.6059 34.5325 20.8868 35.5272 16.7801 35.5579C12.2231 35.5229 8.77788 34.0374 6.53708 31.1408C4.44065 28.4306 3.35688 24.513 3.3181 19.5C3.35904 14.487 4.44281 10.5694 6.54139 7.85697C8.78219 4.96045 12.2274 3.47494 16.7844 3.43989C21.3737 3.47494 24.8793 4.96702 27.2063 7.87669C28.346 9.30303 29.2057 11.0975 29.7745 13.1899L33 12.3157C32.3127 9.73905 31.2311 7.52174 29.7595 5.6791C26.7732 1.95219 22.4122 0.0394382 16.793 0H16.7715C11.163 0.0394382 6.85166 1.95876 3.95371 5.7032C1.37464 9.03573 0.0452468 13.6741 0 19.4869V19.5V19.5131C0.0452468 25.3259 1.37464 29.9643 3.95371 33.2968C6.85166 37.0412 11.163 38.9606 16.7715 39H16.793C21.7788 38.9649 25.293 37.6372 28.1888 34.6969C31.9766 30.8494 31.8624 26.0248 30.6148 23.0648C29.7185 20.9395 28.0099 19.2152 25.6743 18.0758ZM17.0667 26.3053C14.981 26.4258 12.8156 25.4727 12.7079 23.4351C12.6282 21.9233 13.7658 20.2362 17.1938 20.0368C17.5859 20.0127 17.9716 20.0017 18.3508 20.0017C19.5962 20.0017 20.7618 20.1244 21.8197 20.3611C21.4254 25.3785 19.1092 26.1913 17.0667 26.3053Z" fill="url(#paint0_linear_3280_6406)"/>
</g>
<defs>
<linearGradient id="paint0_linear_3280_6406" x1="8.99769" y1="-3.89761" x2="24.1692" y2="39.4728" gradientUnits="userSpaceOnUse">
<stop stop-color="white"/>
<stop offset="0.25" stop-color="white"/>
<stop offset="0.5" stop-color="white"/>
<stop offset="0.75" stop-color="white"/>
<stop offset="1" stop-color="white"/>
</linearGradient>
</defs>
</svg>
