<svg width="346" height="80" viewBox="0 0 346 80" fill="none" xmlns="http://www.w3.org/2000/svg">
<path d="M214.917 32.6364V69H209.875L191.391 42.331H191.054V69H185.567V32.6364H190.645L209.147 59.3409H209.484V32.6364H214.917ZM234.249 69.5504C231.562 69.5504 229.248 68.9763 227.306 67.8281C225.377 66.6681 223.886 65.0405 222.832 62.9453C221.79 60.8383 221.27 58.3703 221.27 55.5412C221.27 52.7476 221.79 50.2855 222.832 48.1548C223.886 46.0241 225.353 44.361 227.235 43.1655C229.129 41.9699 231.343 41.3722 233.876 41.3722C235.415 41.3722 236.906 41.6267 238.35 42.1357C239.795 42.6446 241.091 43.4437 242.239 44.5327C243.387 45.6217 244.293 47.0362 244.956 48.7763C245.618 50.5045 245.95 52.6056 245.95 55.0795V56.9616H224.27V52.9844H240.748C240.748 51.5876 240.463 50.3506 239.895 49.2734C239.327 48.1844 238.528 47.3262 237.498 46.6989C236.48 46.0715 235.285 45.7578 233.912 45.7578C232.42 45.7578 231.118 46.1248 230.005 46.8587C228.904 47.5807 228.052 48.5277 227.449 49.6996C226.857 50.8596 226.561 52.1203 226.561 53.4815V56.5888C226.561 58.4117 226.88 59.9624 227.52 61.2408C228.171 62.5192 229.076 63.4957 230.236 64.1705C231.396 64.8333 232.752 65.1648 234.302 65.1648C235.308 65.1648 236.226 65.0227 237.054 64.7386C237.883 64.4427 238.599 64.0047 239.203 63.4247C239.806 62.8447 240.268 62.1286 240.588 61.2763L245.613 62.1818C245.21 63.6615 244.488 64.9576 243.446 66.0703C242.417 67.1712 241.12 68.0294 239.558 68.6449C238.007 69.2486 236.238 69.5504 234.249 69.5504ZM257.704 69L249.679 41.7273H255.165L260.51 61.7557H260.776L266.138 41.7273H271.625L276.951 61.6669H277.218L282.527 41.7273H288.013L280.005 69H274.59L269.05 49.3089H268.642L263.102 69H257.704ZM313.488 48.3857L308.676 49.2379C308.475 48.6224 308.155 48.0365 307.718 47.4801C307.291 46.9238 306.711 46.468 305.977 46.1129C305.244 45.7578 304.326 45.5803 303.225 45.5803C301.722 45.5803 300.467 45.9176 299.461 46.5923C298.455 47.2552 297.952 48.1134 297.952 49.1669C297.952 50.0784 298.289 50.8123 298.964 51.3686C299.639 51.925 300.728 52.3807 302.231 52.7358L306.563 53.7301C309.073 54.3101 310.943 55.2038 312.174 56.4112C313.405 57.6186 314.021 59.187 314.021 61.1165C314.021 62.75 313.547 64.206 312.6 65.4844C311.665 66.7509 310.357 67.7453 308.676 68.4673C307.007 69.1894 305.072 69.5504 302.87 69.5504C299.816 69.5504 297.325 68.8994 295.395 67.5973C293.466 66.2834 292.282 64.419 291.844 62.0043L296.975 61.223C297.295 62.5606 297.952 63.5727 298.946 64.2592C299.941 64.9339 301.237 65.2713 302.835 65.2713C304.575 65.2713 305.966 64.9103 307.007 64.1882C308.049 63.4543 308.57 62.5606 308.57 61.5071C308.57 60.6548 308.25 59.9387 307.611 59.3587C306.984 58.7786 306.019 58.3407 304.717 58.0447L300.1 57.0327C297.555 56.4527 295.673 55.5294 294.454 54.2628C293.247 52.9962 292.643 51.3923 292.643 49.451C292.643 47.8411 293.093 46.4325 293.992 45.2251C294.892 44.0178 296.135 43.0767 297.721 42.402C299.307 41.7154 301.124 41.3722 303.172 41.3722C306.119 41.3722 308.44 42.0114 310.132 43.2898C311.825 44.5563 312.944 46.255 313.488 48.3857Z" fill="black"/>
<path d="M6.96875 69.3637H16.2375V34.873H6.96875V69.3637Z" fill="#FF6C00"/>
<path d="M60.5711 69.3634H69.8398V44.5453C69.8398 43.1878 69.6494 41.8939 69.2684 40.6636C68.9299 39.4333 68.3797 38.3514 67.6179 37.4181C66.8984 36.4424 65.9884 35.6787 64.888 35.1272C63.7876 34.5333 62.4968 34.2363 61.0155 34.2363C58.73 34.2363 56.6985 34.5969 54.9209 35.3181C53.1434 35.9969 51.4504 37.0999 49.8422 38.6272C48.9111 37.1424 47.7049 36.0393 46.2235 35.3181C44.7422 34.5969 43.134 34.2363 41.3987 34.2363C39.5788 34.2363 37.9494 34.4909 36.5104 35C35.1137 35.509 33.7382 36.3363 32.3839 37.4818V34.8727H23.75V69.3634H33.0188V45.1817C33.315 44.9272 33.6959 44.609 34.1615 44.2272C34.627 43.8454 35.1137 43.506 35.6216 43.209C36.1718 42.8696 36.722 42.5938 37.2722 42.3817C37.8224 42.1272 38.3303 41.9999 38.7959 41.9999C39.9809 41.9999 40.8274 42.3181 41.3352 42.9544C41.8854 43.5908 42.1605 44.4817 42.1605 45.6272V69.3634H51.4293V45.1817C51.7255 44.9272 52.1065 44.609 52.572 44.2272C53.0376 43.8454 53.5454 43.506 54.0956 43.209C54.6458 42.8696 55.1749 42.5938 55.6827 42.3817C56.2329 42.1272 56.7197 41.9999 57.1429 41.9999C58.3279 41.9999 59.1956 42.3181 59.7458 42.9544C60.296 43.5908 60.5711 44.4817 60.5711 45.6272V69.3634Z" fill="#FF6C00"/>
<path d="M113.516 69.3634H122.785V44.5453C122.785 43.1878 122.595 41.8939 122.214 40.6636C121.875 39.4333 121.325 38.3514 120.563 37.4181C119.844 36.4424 118.934 35.6787 117.833 35.1272C116.733 34.5333 115.442 34.2363 113.961 34.2363C111.675 34.2363 109.644 34.5969 107.866 35.3181C106.089 35.9969 104.396 37.0999 102.787 38.6272C101.856 37.1424 100.65 36.0393 99.1689 35.3181C97.6876 34.5969 96.0793 34.2363 94.344 34.2363C92.5241 34.2363 90.8947 34.4909 89.4557 35C88.0591 35.509 86.6836 36.3363 85.3292 37.4818V34.8727H76.6953V69.3634H85.9641V45.1817C86.2603 44.9272 86.6412 44.609 87.1068 44.2272C87.5723 43.8454 88.059 43.506 88.5669 43.209C89.1171 42.8696 89.6673 42.5938 90.2175 42.3817C90.7677 42.1272 91.2756 41.9999 91.7412 41.9999C92.9262 41.9999 93.7727 42.3181 94.2806 42.9544C94.8308 43.5908 95.1058 44.4817 95.1058 45.6272V69.3634H104.375V45.1817C104.671 44.9272 105.052 44.609 105.517 44.2272C105.983 43.8454 106.491 43.506 107.041 43.209C107.591 42.8696 108.12 42.5938 108.628 42.3817C109.178 42.1272 109.665 41.9999 110.088 41.9999C111.273 41.9999 112.141 42.3181 112.691 42.9544C113.241 43.5908 113.516 44.4817 113.516 45.6272V69.3634Z" fill="#FF6C00"/>
<path d="M150.146 68.3452C151.332 67.7937 152.432 67.0512 153.448 66.1179C154.506 65.1422 155.543 63.8907 156.558 62.3634L149.702 58.0362C148.771 59.2665 147.755 60.2846 146.655 61.0907C145.597 61.8543 144.264 62.2361 142.655 62.2361C141.386 62.2361 140.37 62.0028 139.608 61.5361C138.846 61.0695 138.233 60.4543 137.767 59.6907C137.344 58.9271 137.026 58.0574 136.815 57.0816C136.645 56.1059 136.497 55.1089 136.37 54.0907H156.304V49.6362C156.304 47.3877 155.902 45.3514 155.098 43.5272C154.336 41.7029 153.321 40.0696 152.051 38.6272C149.427 35.7 146.105 34.2363 142.084 34.2363C139.46 34.2363 137.196 34.7242 135.291 35.7C133.429 36.6757 131.884 37.9908 130.657 39.6454C129.429 41.2575 128.519 43.1454 127.927 45.309C127.377 47.4726 127.102 49.7423 127.102 52.118C127.102 54.4513 127.377 56.6998 127.927 58.8634C128.519 60.9846 129.408 62.8725 130.593 64.527C131.778 66.1815 133.302 67.5179 135.164 68.5361C137.026 69.5118 139.248 69.9997 141.83 69.9997C145.131 69.9997 147.903 69.4482 150.146 68.3452ZM146.02 43.1454C146.951 44.206 147.48 45.6059 147.607 47.3453H136.434C136.561 46.5393 136.73 45.7756 136.942 45.0544C137.196 44.3332 137.534 43.7181 137.957 43.209C138.381 42.6575 138.91 42.2332 139.545 41.9363C140.222 41.6393 141.047 41.4908 142.02 41.4908C143.713 41.4908 145.047 42.0423 146.02 43.1454Z" fill="#FF6C00"/>
<path d="M177 43.909L178.905 44.0363V34.2363C176.873 34.2363 175.074 34.5757 173.508 35.2545C171.985 35.9333 170.652 37.1212 169.509 38.8181V34.8727H160.875V69.3634H170.144V48.5544C170.567 47.6211 171.435 46.6241 172.747 45.5635C174.186 44.4181 175.603 43.8666 177 43.909Z" fill="#FF6C00"/>
<path fill-rule="evenodd" clip-rule="evenodd" d="M3.10304 26.9874C6.60288 31.6912 13.2539 32.6618 17.9465 29.1537C22.6391 25.6455 23.6074 18.9786 20.1076 14.2749C16.6078 9.57106 9.95676 8.60041 5.26416 12.1086C0.571549 15.6168 -0.396795 22.2836 3.10304 26.9874ZM5.37032 25.2924C7.93673 28.7417 12.8144 29.4536 16.2555 26.881C19.6966 24.3084 20.4068 19.4192 17.8403 15.9699C15.2738 12.5205 10.3963 11.8087 6.95513 14.3813C3.51399 16.9538 2.80385 21.843 5.37032 25.2924Z" fill="#FF6C00"/>
<path fill-rule="evenodd" clip-rule="evenodd" d="M9.04688 20.6307C9.04688 22.0474 10.194 23.1973 11.6074 23.1973C13.0207 23.1973 14.1679 22.0474 14.1679 20.6307C14.1679 19.2139 13.0207 18.0641 11.6074 18.0641C10.194 18.0641 9.04688 19.2139 9.04688 20.6307Z" fill="#FF6C00"/>
<path d="M17.3089 20.6318C17.1561 20.6332 16.1857 20.6332 15.9544 20.6318C15.9544 18.1557 13.9449 16.1414 11.4747 16.1414C9.00453 16.1414 6.99505 18.1557 6.99505 20.6318C6.76461 20.6332 5.97719 20.6332 5.64063 20.6318C5.64017 17.4071 8.25778 14.7836 11.4749 14.7836C14.6919 14.7836 17.3091 17.4071 17.3091 20.6318H17.3089Z" fill="#FF6C00"/>
</svg>
