<svg width="95" height="32" viewBox="0 0 95 32" fill="none" xmlns="http://www.w3.org/2000/svg">
<g id="Logo/Wordmark/Orange">
<path id="path886" d="M3.1709 31.6606H8.093V13.2656H3.1709V31.6606Z" fill="#FF6C00"/>
<path id="path888" d="M31.6363 31.6607H36.5584V18.4244C36.5584 17.7004 36.4573 17.0103 36.255 16.3541C36.0752 15.698 35.783 15.121 35.3785 14.6232C34.9964 14.1028 34.5132 13.6956 33.9288 13.4014C33.3444 13.0847 32.6589 12.9263 31.8723 12.9263C30.6586 12.9263 29.5798 13.1186 28.6359 13.5032C27.6919 13.8653 26.7929 14.4535 25.9388 15.2681C25.4444 14.4762 24.8038 13.8879 24.0172 13.5032C23.2305 13.1186 22.3765 12.9263 21.455 12.9263C20.4885 12.9263 19.6232 13.062 18.8591 13.3335C18.1174 13.6051 17.3869 14.0463 16.6677 14.6572V13.2657H12.0828V31.6607H17.0049V18.7638C17.1622 18.628 17.3645 18.4584 17.6117 18.2547C17.8589 18.0511 18.1174 17.8701 18.3871 17.7117C18.6793 17.5307 18.9715 17.3836 19.2636 17.2705C19.5558 17.1347 19.8255 17.0668 20.0728 17.0668C20.7021 17.0668 21.1516 17.2365 21.4213 17.5759C21.7135 17.9153 21.8595 18.3905 21.8595 19.0014V31.6607H26.7816V18.7638C26.939 18.628 27.1412 18.4584 27.3885 18.2547C27.6357 18.0511 27.9054 17.8701 28.1976 17.7117C28.4898 17.5307 28.7707 17.3836 29.0404 17.2705C29.3326 17.1347 29.5911 17.0668 29.8158 17.0668C30.4451 17.0668 30.9059 17.2365 31.198 17.5759C31.4902 17.9153 31.6363 18.3905 31.6363 19.0014V31.6607Z" fill="#FF6C00"/>
<path id="path890" d="M59.7523 31.6607H64.6744V18.4244C64.6744 17.7004 64.5732 17.0103 64.371 16.3541C64.1912 15.698 63.899 15.121 63.4944 14.6232C63.1123 14.1028 62.6291 13.6956 62.0448 13.4014C61.4604 13.0847 60.7749 12.9263 59.9883 12.9263C58.7746 12.9263 57.6958 13.1186 56.7518 13.5032C55.8079 13.8653 54.9088 14.4535 54.0548 15.2681C53.5603 14.4762 52.9198 13.8879 52.1331 13.5032C51.3465 13.1186 50.4924 12.9263 49.5709 12.9263C48.6045 12.9263 47.7392 13.062 46.975 13.3335C46.2334 13.6051 45.5029 14.0463 44.7837 14.6572V13.2657H40.1987V31.6607H45.1208V18.7638C45.2782 18.628 45.4804 18.4584 45.7277 18.2547C45.9749 18.0511 46.2334 17.8701 46.5031 17.7117C46.7952 17.5307 47.0874 17.3836 47.3796 17.2705C47.6718 17.1347 47.9415 17.0668 48.1887 17.0668C48.818 17.0668 49.2675 17.2365 49.5372 17.5759C49.8294 17.9153 49.9755 18.3905 49.9755 19.0014V31.6607H54.8976V18.7638C55.0549 18.628 55.2572 18.4584 55.5044 18.2547C55.7517 18.0511 56.0214 17.8701 56.3136 17.7117C56.6057 17.5307 56.8867 17.3836 57.1564 17.2705C57.4486 17.1347 57.707 17.0668 57.9318 17.0668C58.5611 17.0668 59.0218 17.2365 59.314 17.5759C59.6062 17.9153 59.7523 18.3905 59.7523 19.0014V31.6607Z" fill="#FF6C00"/>
<path id="path892" d="M79.2041 31.1177C79.8334 30.8235 80.4178 30.4276 80.9572 29.9298C81.5191 29.4094 82.0698 28.7419 82.6092 27.9274L78.9682 25.6195C78.4737 26.2757 77.9343 26.8187 77.3499 27.2486C76.788 27.6559 76.0801 27.8595 75.226 27.8595C74.5517 27.8595 74.0123 27.7351 73.6078 27.4862C73.2032 27.2373 72.8773 26.9092 72.6301 26.5019C72.4053 26.0947 72.2368 25.6308 72.1244 25.1104C72.0345 24.59 71.9558 24.0583 71.8884 23.5153H82.4743V21.1395C82.4743 19.9404 82.2608 18.8543 81.8338 17.8814C81.4292 16.9085 80.8898 16.0374 80.2155 15.2681C78.8221 13.7069 77.0577 12.9263 74.9226 12.9263C73.5291 12.9263 72.3267 13.1865 71.3153 13.7069C70.3264 14.2273 69.506 14.9287 68.8542 15.8111C68.2025 16.6709 67.7192 17.6778 67.4046 18.8317C67.1124 19.9856 66.9663 21.1961 66.9663 22.4632C66.9663 23.7076 67.1124 24.9068 67.4046 26.0607C67.7192 27.192 68.1912 28.1989 68.8205 29.0813C69.4498 29.9637 70.2589 30.6764 71.2479 31.2195C72.2368 31.7399 73.4167 32.0001 74.7877 32.0001C76.5408 32.0001 78.0129 31.7059 79.2041 31.1177ZM77.0128 17.6778C77.5072 18.2434 77.7882 18.9901 77.8556 19.9177H71.9221C71.9896 19.4878 72.0795 19.0806 72.1918 18.6959C72.3267 18.3113 72.5065 17.9832 72.7312 17.7117C72.956 17.4176 73.2369 17.1913 73.5741 17.0329C73.9337 16.8745 74.3719 16.7953 74.8889 16.7953C75.7879 16.7953 76.4959 17.0895 77.0128 17.6778Z" fill="#FF6C00"/>
<path id="path894" d="M93.4647 18.085L94.4761 18.1529V12.9263C93.3973 12.9263 92.4421 13.1073 91.6105 13.4693C90.8014 13.8313 90.0934 14.4648 89.4866 15.3699V13.2657H84.9016V31.6607H89.8237V20.5626C90.0485 20.0648 90.5092 19.5331 91.206 18.9674C91.9701 18.3565 92.723 18.0624 93.4647 18.085Z" fill="#FF6C00"/>
<g id="g886">
<path id="path6424" fill-rule="evenodd" clip-rule="evenodd" d="M1.1168 9.05972C2.97537 11.5684 6.50732 12.0861 8.9993 10.2151C11.4913 8.34403 12.0055 4.78838 10.1469 2.27969C8.28838 -0.228995 4.75642 -0.746676 2.26445 1.12435C-0.227526 2.99538 -0.741757 6.55103 1.1168 9.05972ZM2.32082 8.15571C3.6837 9.99533 6.27393 10.375 8.10132 9.00297C9.92871 7.63092 10.3058 5.02334 8.94292 3.1837C7.58002 1.34405 4.98982 0.9644 3.16243 2.33645C1.33504 3.70849 0.957921 6.31606 2.32082 8.15571Z" fill="#FF6C00"/>
<path id="path6424-9" fill-rule="evenodd" clip-rule="evenodd" d="M4.27222 5.66972C4.27222 6.42531 4.88139 7.03857 5.63195 7.03857C6.38251 7.03857 6.99169 6.42531 6.99169 5.66972C6.99169 4.91412 6.38251 4.30086 5.63195 4.30086C4.88139 4.30086 4.27222 4.91412 4.27222 5.66972Z" fill="#FF6C00"/>
<path id="path6901-3" d="M8.6619 5.66986C8.58076 5.67059 8.06546 5.67059 7.94265 5.66986C7.94265 4.34928 6.87553 3.275 5.56374 3.275C4.25195 3.275 3.18483 4.34928 3.18483 5.66986C3.06246 5.67059 2.6443 5.67059 2.46558 5.66986C2.46533 3.95001 3.8554 2.55085 5.5638 2.55085C7.27221 2.55085 8.66203 3.95004 8.66203 5.66986H8.6619Z" fill="#FF6C00"/>
</g>
</g>
</svg>
