<svg width="390" height="132" viewBox="0 0 390 132" fill="none" xmlns="http://www.w3.org/2000/svg">
<path d="M13.0894 130.6H33.4079V54.7205H13.0894V130.6Z" fill="white"/>
<path d="M130.595 130.6H150.914V76.0004C150.914 73.0138 150.496 70.1671 149.661 67.4605C148.919 64.7538 147.713 62.3738 146.043 60.3205C144.466 58.1738 142.471 56.4939 140.059 55.2805C137.646 53.9739 134.817 53.3206 131.569 53.3206C126.559 53.3206 122.106 54.1139 118.209 55.7006C114.312 57.1939 110.601 59.6205 107.076 62.9805C105.035 59.7138 102.39 57.2872 99.1431 55.7006C95.8959 54.1139 92.3703 53.3206 88.5663 53.3206C84.5768 53.3206 81.0048 53.8806 77.8504 55.0005C74.7887 56.1205 71.7734 57.9405 68.8044 60.4605V54.7206H49.8776V130.6H70.1961V77.4004C70.8456 76.8404 71.6806 76.1404 72.7012 75.3004C73.7217 74.4604 74.7887 73.7138 75.902 73.0604C77.1081 72.3138 78.3143 71.7071 79.5204 71.2404C80.7265 70.6804 81.8399 70.4004 82.8604 70.4004C85.4582 70.4004 87.3138 71.1004 88.4272 72.5004C89.6333 73.9004 90.2363 75.8604 90.2363 78.3804V130.6H110.555V77.4004C111.204 76.8404 112.039 76.1404 113.06 75.3004C114.08 74.4604 115.194 73.7138 116.4 73.0604C117.606 72.3138 118.766 71.7071 119.879 71.2404C121.085 70.6804 122.152 70.4004 123.08 70.4004C125.678 70.4004 127.58 71.1004 128.786 72.5004C129.992 73.9004 130.595 75.8604 130.595 78.3804V130.6Z" fill="white"/>
<path d="M246.659 130.6H266.977V76.0004C266.977 73.0138 266.56 70.1671 265.725 67.4605C264.983 64.7538 263.777 62.3738 262.107 60.3205C260.529 58.1738 258.535 56.4939 256.122 55.2805C253.71 53.9739 250.88 53.3206 247.633 53.3206C242.623 53.3206 238.17 54.1139 234.273 55.7006C230.376 57.1939 226.665 59.6205 223.14 62.9805C221.098 59.7138 218.454 57.2872 215.207 55.7006C211.96 54.1139 208.434 53.3206 204.63 53.3206C200.641 53.3206 197.069 53.8806 193.914 55.0005C190.853 56.1205 187.837 57.9405 184.868 60.4605V54.7206H165.941V130.6H186.26V77.4004C186.909 76.8404 187.744 76.1404 188.765 75.3004C189.786 74.4604 190.852 73.7138 191.966 73.0604C193.172 72.3138 194.378 71.7071 195.584 71.2404C196.79 70.6804 197.904 70.4004 198.924 70.4004C201.522 70.4004 203.378 71.1004 204.491 72.5004C205.697 73.9004 206.3 75.8604 206.3 78.3804V130.6H226.619V77.4004C227.268 76.8404 228.103 76.1404 229.124 75.3004C230.144 74.4604 231.258 73.7138 232.464 73.0604C233.67 72.3138 234.83 71.7071 235.943 71.2404C237.149 70.6804 238.216 70.4004 239.144 70.4004C241.742 70.4004 243.644 71.1004 244.85 72.5004C246.056 73.9004 246.659 75.8604 246.659 78.3804V130.6Z" fill="white"/>
<path d="M326.957 128.36C329.555 127.147 331.967 125.513 334.194 123.46C336.513 121.313 338.786 118.56 341.013 115.2L325.983 105.68C323.942 108.387 321.715 110.627 319.303 112.4C316.983 114.08 314.061 114.92 310.535 114.92C307.752 114.92 305.525 114.407 303.855 113.38C302.185 112.353 300.84 111 299.819 109.32C298.891 107.64 298.196 105.727 297.732 103.58C297.361 101.434 297.036 99.2402 296.758 97.0002H340.456V87.2003C340.456 82.2537 339.575 77.7737 337.812 73.7604C336.142 69.7471 333.915 66.1538 331.132 62.9805C325.38 56.5405 318.097 53.3206 309.283 53.3206C303.53 53.3206 298.567 54.3939 294.392 56.5405C290.309 58.6872 286.923 61.5805 284.232 65.2205C281.542 68.7671 279.547 72.9204 278.248 77.6804C277.042 82.4403 276.439 87.4337 276.439 92.6603C276.439 97.7936 277.042 102.74 278.248 107.5C279.547 112.167 281.495 116.32 284.093 119.96C286.691 123.6 290.031 126.54 294.113 128.78C298.196 130.927 303.066 132 308.726 132C315.963 132 322.04 130.787 326.957 128.36ZM317.911 72.9204C319.952 75.2537 321.112 78.3337 321.39 82.1603H296.897C297.175 80.387 297.546 78.707 298.01 77.1204C298.567 75.5337 299.309 74.1804 300.237 73.0604C301.165 71.8471 302.324 70.9138 303.716 70.2604C305.2 69.6071 307.01 69.2804 309.144 69.2804C312.855 69.2804 315.777 70.4938 317.911 72.9204Z" fill="white"/>
<path d="M385.825 74.6004L390 74.8804V53.3206C385.547 53.3206 381.604 54.0672 378.171 55.5605C374.831 57.0539 371.908 59.6672 369.403 63.4005V54.7206H350.476V130.6H370.795V84.8203C371.723 82.767 373.625 80.5737 376.501 78.2404C379.655 75.7204 382.763 74.5071 385.825 74.6004Z" fill="white"/>
<path fill-rule="evenodd" clip-rule="evenodd" d="M4.61019 37.3712C12.2824 47.7195 26.8624 49.8549 37.1493 42.1369C47.4363 34.419 49.559 19.7519 41.8868 9.40356C34.2146 -0.944786 19.6346 -3.08022 9.3477 4.63776C-0.939232 12.3558 -3.06199 27.0228 4.61019 37.3712ZM9.58042 33.6421C15.2064 41.2305 25.8989 42.7967 33.4424 37.137C40.986 31.4774 42.5427 20.7211 36.9166 13.1326C31.2905 5.54402 20.5981 3.97797 13.0546 9.63766C5.51107 15.2973 3.95432 26.0536 9.58042 33.6421Z" fill="white"/>
<path fill-rule="evenodd" clip-rule="evenodd" d="M17.6355 23.3874C17.6355 26.5042 20.1502 29.0339 23.2485 29.0339C26.3469 29.0339 28.8615 26.5042 28.8615 23.3874C28.8615 20.2706 26.3469 17.7409 23.2485 17.7409C20.1502 17.7409 17.6355 20.2706 17.6355 23.3874Z" fill="white"/>
<path d="M35.7563 23.3874C35.4214 23.3904 33.2942 23.3904 32.7872 23.3874C32.7872 17.94 28.3821 13.5086 22.967 13.5086C17.5519 13.5086 13.1468 17.94 13.1468 23.3874C12.6417 23.3904 10.9155 23.3904 10.1777 23.3874C10.1767 16.293 15.9149 10.5215 22.9673 10.5215C30.0197 10.5215 35.7569 16.2931 35.7569 23.3874H35.7563Z" fill="white"/>
</svg>
