<svg width="194" height="193" viewBox="0 0 194 193" fill="none" xmlns="http://www.w3.org/2000/svg">
<path d="M193.5 96.5C193.5 149.795 150.295 193 97 193C43.7045 193 0.5 149.795 0.5 96.5C0.5 43.2045 43.7045 0 97 0C150.295 0 193.5 43.2045 193.5 96.5ZM25.4068 96.5C25.4068 136.04 57.4602 168.093 97 168.093C136.54 168.093 168.593 136.04 168.593 96.5C168.593 56.9602 136.54 24.9068 97 24.9068C57.4602 24.9068 25.4068 56.9602 25.4068 96.5Z" fill="#FCE4D2"/>
<path d="M86.3995 118.463L88.1673 120.231L89.9351 118.463L126.614 81.7837L128.382 80.0159L126.614 78.2482L122.921 74.5545L121.153 72.7867L119.385 74.5545L88.1673 105.772L74.3872 91.9921L72.6195 90.2244L70.8517 91.9921L67.158 95.6858L65.3902 97.4536L67.158 99.2213L86.3995 118.463Z" fill="#FF6C00" stroke="#FF6C00" stroke-width="5"/>
</svg>
